<svg xmlns="http://www.w3.org/2000/svg" height="48" viewBox="0 -960 960 960" width="48"><path d="m258-86-12-88 127-349q14 16 32.5 25.5T444-485L322-148l-64 62Zm445 0-65-62-124-336q20-3 39-12.5t33-25.5l128 348-11 88ZM480.235-503q-55.735 0-95.485-39.644T345-638.208q0-46.232 27-83.012t69-46.54V-860h79v92q41 10 68 46.78t27 83.012q0 55.92-39.515 95.564Q535.971-503 480.235-503Zm-.112-80q22.427 0 38.652-16.348T535-638.123q0-22.427-16.348-39.152T479.877-694q-22.427 0-38.652 16.63T425-637.895q0 22.42 16.348 38.657Q457.696-583 480.123-583Z"/></svg>